<svg xmlns="http://www.w3.org/2000/svg" xmlns:xlink="http://www.w3.org/1999/xlink" xmlns:inkscape="http://www.inkscape.org/namespaces/inkscape" version="1.1" width="595.2756" height="841.8898" viewBox="0 0 595.2756 841.8898">
<defs>
<path id="font_1_49" d="M.22599793 .2599945H.41299439C.5469971 .2599945 .6329956 .35499574 .6329956 .5029907 .6329956 .6489868 .5499878 .72898867 .397995 .72898867H.07598877V0H.22599793V.2599945M.22599793 .3849945V.60398867H.3659973C.44599916 .60398867 .48298646 .56900027 .48298646 .49499513 .48298646 .41999818 .44599916 .3849945 .3659973 .3849945H.22599793Z"/>
<path id="font_1_77" d="M.20698548 .72898867H.066986087V0H.20698548V.72898867Z"/>
<path id="font_1_66" d="M.5239868 .016998291C.5 .039993287 .49198915 .055999757 .49198915 .08299255V.3829956C.49198915 .49299623 .4169922 .548996 .2709961 .548996 .125 .548996 .04899597 .4869995 .039993287 .3619995H.1749878C.18199158 .41799928 .20498657 .43598939 .27398683 .43598939 .32798768 .43598939 .35499574 .41799928 .35499574 .38198854 .35499574 .3639984 .34599305 .34899903 .33099366 .33999635 .31199647 .32998658 .31199647 .32998658 .24299622 .31900025L.18699646 .30899049C.07998657 .29100038 .027999878 .23599243 .027999878 .13899231 .027999878 .041992189 .09298706-.023010254 .19198609-.023010254 .2519989-.023010254 .30599977 .0019989014 .35598756 .053985597 .35598756 .025985718 .35899354 .015991211 .37199403 0H.5239868V.016998291M.35499574 .21699524C.35499574 .13598633 .31498719 .08999634 .24398804 .08999634 .19699097 .08999634 .16799927 .114990238 .16799927 .15499878 .16799927 .19699097 .18998719 .21699524 .24798584 .22898865L.29599 .23799134C.33299256 .24499512 .33898927 .24699402 .35499574 .25498963V.21699524Z"/>
<path id="font_1_79" d="M.06298828 .5399933V0H.20298767V.32398988C.20298767 .3880005 .24699402 .42999269 .31599427 .42999269 .37599183 .42999269 .4059906 .39698792 .4059906 .33299256V0H.54599V.3619995C.54599 .48199464 .48098756 .548996 .36499024 .548996 .2919922 .548996 .24299622 .522995 .20298767 .46199037V.5399933H.06298828Z"/>
<path id="font_1_1" d="M0 0Z"/>
<path id="font_1_69" d="M.40499879 0H.54499819V.72898867H.40499879V.46998597C.36999513 .5239868 .32398988 .548996 .2559967 .548996 .1269989 .548996 .0289917 .4249878 .0289917 .2619934 .0289917 .18899536 .050994874 .114990238 .08699036 .06298828 .12399292 .009994507 .18998719-.023010254 .2559967-.023010254 .32398988-.023010254 .36999513 .0009918213 .40499879 .054992677V0M.2869873 .43199159C.35798646 .43199159 .40499879 .3639984 .40499879 .2599945 .40499879 .1619873 .35699464 .09399414 .2869873 .09399414 .21699524 .09399414 .16899109 .16299439 .16899109 .2619934 .16899109 .36299134 .21699524 .43199159 .2869873 .43199159Z"/>
<path id="font_1_70" d="M.5239868 .22599793C.5249939 .23799134 .5249939 .24299622 .5249939 .25 .5249939 .3039856 .5169983 .35398866 .5039978 .3919983 .46798707 .48999024 .3809967 .548996 .27198792 .548996 .116989139 .548996 .021987915 .43699647 .021987915 .2559967 .021987915 .08299255 .115997318-.023010254 .2689972-.023010254 .3899994-.023010254 .48799134 .04499817 .5189972 .1519928H.3809967C.3639984 .10899353 .32499696 .083999637 .27398683 .083999637 .23399353 .083999637 .20199585 .100997928 .18199158 .1309967 .16899109 .15098572 .1639862 .1749878 .1619873 .22599793H.5239868M.1639862 .31900025C.17298889 .4019928 .20799256 .44198609 .269989 .44198609 .33399964 .44198609 .37199403 .39898683 .3789978 .31900025H.1639862Z"/>
<path id="font_1_36" d="M.6819916 .48199464C.6769867 .54499819 .6639862 .58499148 .6329956 .6259918 .57699587 .69999697 .4869995 .7409973 .37799073 .7409973 .17199707 .7409973 .04399109 .59399417 .04399109 .35798646 .04399109 .12298584 .17098999-.023010254 .37399293-.023010254 .55599978-.023010254 .6759949 .08198547 .68499758 .24899292H.5389862C.5289917 .1559906 .47099305 .102996829 .37799073 .102996829 .2619934 .102996829 .19400025 .19699097 .19400025 .35598756 .19400025 .5169983 .2649994 .61299136 .3829956 .61299136 .46998597 .61299136 .5189972 .57099917 .5389862 .48199464H.6819916Z"/>
<path id="font_1_73" d="M.066986087 .72898867V0H.20698548V.32398988C.20698548 .38598634 .2519989 .42999269 .31498719 .42999269 .34599305 .42999269 .36898805 .4189911 .3849945 .39698792 .397995 .3789978 .40098573 .3639984 .40098573 .32998658V0H.54100039V.3619995C.54100039 .42900086 .522995 .47698976 .48599244 .5079956 .45498658 .5339966 .4099884 .548996 .36499024 .548996 .29599 .548996 .24598694 .5219879 .20698548 .46199037V.72898867H.066986087Z"/>
<path id="font_1_78" d="M.05999756 .5399933V0H.19999695V.32398988C.19999695 .3909912 .23599243 .42999269 .29599 .42999269 .34298707 .42999269 .37199403 .40299989 .37199403 .3600006V0H.5119934V.32398988C.5119934 .3899994 .5479889 .42999269 .60798647 .42999269 .6549988 .42999269 .6839905 .40299989 .6839905 .3600006V0H.82398989V.38198854C.82398989 .4869995 .7599945 .548996 .6519928 .548996 .58299258 .548996 .5359955 .5249939 .49398805 .46899415 .46798707 .519989 .4139862 .548996 .34700013 .548996 .2849884 .548996 .24499512 .5289917 .19898987 .47299195V.5399933H.05999756Z"/>
<path id="font_1_67" d="M.05899048 .72898867V0H.19898987V.054992677C.23298645 .0019989014 .27999879-.023010254 .34799195-.023010254 .47698976-.023010254 .57499697 .099990848 .57499697 .2630005 .57499697 .33599855 .5529938 .4099884 .5169983 .46199037 .47999574 .5149994 .4139862 .548996 .34799195 .548996 .27999879 .548996 .23298645 .5239868 .19898987 .46998597V.72898867H.05899048M.31698609 .43199159C.38598634 .43199159 .43499757 .3619995 .43499757 .2619934 .43499757 .16299439 .3869934 .09399414 .31698609 .09399414 .24598694 .09399414 .19898987 .16099549 .19898987 .2649994 .19898987 .3639984 .24699402 .43199159 .31698609 .43199159Z"/>
<path id="font_1_83" d="M.06298828 .5399933V0H.20298767V.2869873C.20298767 .36898805 .24398804 .4099884 .32598878 .4099884 .34098817 .4099884 .35099793 .40899659 .36999513 .4059906V.5479889C.3619995 .548996 .35899354 .548996 .35299684 .548996 .2889862 .548996 .23399353 .5069885 .20298767 .43399049V.5399933H.06298828Z"/>
<path id="font_1_14" d="M.2979889 .34199525H.025985718V.20698548H.2979889V.34199525Z"/>
<path id="font_1_38" d="M.22898865 .31399537H.5779877V.43899537H.22898865V.60398867H.60598757V.72898867H.07899475V0H.6239929V.125H.22898865V.31399537Z"/>
<path id="font_1_89" d="M.35499574 .27198792 .5309906 .5399933H.36299134L.27598573 .3769989 .18798828 .5399933H.019989014L.19599915 .27198792 .015991211 0H.18399048L.27598573 .16799927 .36698915 0H.5349884L.35499574 .27198792Z"/>
<path id="font_1_81" d="M.19799805 .5399933H.057998659V-.21800232H.19799805V.06399536C.23199463 .0039978029 .27999879-.024002076 .34799195-.024002076 .47799684-.024002076 .57398989 .09799194 .57398989 .2619934 .57398989 .33799745 .5519867 .4139862 .5159912 .46398927 .47999574 .5149994 .41299439 .548996 .34799195 .548996 .27999879 .548996 .23199463 .519989 .19799805 .45999146V.5399933M.31599427 .43199159C.3869934 .43199159 .43399049 .3639984 .43399049 .2599945 .43399049 .16099549 .38598634 .09298706 .31599427 .09298706 .24499512 .09298706 .19799805 .16099549 .19799805 .2619934 .19799805 .3639984 .24499512 .43199159 .31599427 .43199159Z"/>
<path id="font_2_49" d="M.18399048 .30899049H.41299439C.46998597 .30899049 .5149994 .32598878 .55400088 .36099244 .59799197 .40098573 .61698916 .44799806 .61698916 .5149994 .61698916 .6519928 .5359955 .72898867 .3919983 .72898867H.09098816V0H.18399048V.30899049M.18399048 .3909912V.6469879H.37799073C.46699525 .6469879 .519989 .598999 .519989 .5189972 .519989 .43899537 .46699525 .3909912 .37799073 .3909912H.18399048Z"/>
<path id="font_2_80" d="M.27198792 .5389862C.12399292 .5389862 .035995485 .43399049 .035995485 .2579956 .035995485 .08099365 .12399292-.023010254 .272995-.023010254 .42099-.023010254 .5099945 .08198547 .5099945 .2539978 .5099945 .43598939 .42399598 .5389862 .27198792 .5389862M.272995 .46199037C.36698915 .46199037 .4229889 .3849945 .4229889 .25498963 .4229889 .1309967 .36499024 .053985597 .272995 .053985597 .17999268 .053985597 .12298584 .1309967 .12298584 .2579956 .12298584 .3849945 .17999268 .46199037 .272995 .46199037Z"/>
<path id="font_2_83" d="M.068984989 .5239868V0H.15299988V.27198792C.1539917 .397995 .20599365 .45399476 .32099916 .45098878V.5359955C.30699159 .5379944 .29899598 .5389862 .2889862 .5389862 .23498535 .5389862 .19400025 .5069885 .1459961 .42900086V.5239868H.068984989Z"/>
<path id="font_2_85" d="M.2539978 .5239868H.16799927V.66799929H.084991458V.5239868H.01399231V.45599366H.084991458V.05999756C.084991458 .005996704 .12098694-.023010254 .18598938-.023010254 .20799256-.023010254 .22599793-.021011353 .2539978-.01600647V.053985597C.24198914 .050994874 .23098755 .049987794 .21398926 .049987794 .17799378 .049987794 .16799927 .05999756 .16799927 .09700012V.45599366H.2539978V.5239868Z"/>
<path id="font_2_70" d="M.5130005 .23399353C.5130005 .31399537 .5069885 .3619995 .49198915 .40098573 .45799256 .4869995 .37799073 .5389862 .27999879 .5389862 .13398743 .5389862 .039993287 .42799378 .039993287 .25498963 .039993287 .08198547 .12998963-.023010254 .27799989-.023010254 .397995-.023010254 .48098756 .04499817 .5019989 .15899658H.41799928C.394989 .08999634 .34799195 .053985597 .2809906 .053985597 .22799683 .053985597 .18299866 .07798767 .15499878 .12199402 .1349945 .1519928 .12799073 .18199158 .1269989 .23399353H.5130005M.1289978 .3019867C.13598633 .39898683 .19499207 .46199037 .2789917 .46199037 .3639984 .46199037 .4229889 .3959961 .4229889 .3019867H.1289978Z"/>
<path id="font_2_39" d="M.18299866 .33198548H.5309906V.4139862H.18299866V.6469879H.57899478V.72898867H.08999634V0H.18299866V.33198548Z"/>
<path id="font_2_79" d="M.069992069 .5239868V0H.1539917V.2889862C.1539917 .3959961 .20999146 .46598817 .29599 .46598817 .3619995 .46598817 .4039917 .42599488 .4039917 .36299134V0H.4869995V.3959961C.4869995 .48298646 .42199708 .5389862 .32099916 .5389862 .24299622 .5389862 .19299317 .5089874 .14698792 .43598939V.5239868H.069992069Z"/>
<path id="font_2_208" d="M.5130005 .23399353C.5130005 .31399537 .5069885 .3619995 .49198915 .40098573 .45799256 .4869995 .37799073 .5389862 .27999879 .5389862 .13398743 .5389862 .039993287 .42799378 .039993287 .25498963 .039993287 .08198547 .12998963-.023010254 .27799989-.023010254 .397995-.023010254 .48098756 .04499817 .5019989 .15899658H.41799928C.394989 .08999634 .34799195 .053985597 .2809906 .053985597 .22799683 .053985597 .18299866 .07798767 .15499878 .12199402 .1349945 .1519928 .12799073 .18199158 .1269989 .23399353H.5130005M.1289978 .3019867C.13598633 .39898683 .19499207 .46199037 .2789917 .46199037 .3639984 .46199037 .4229889 .3959961 .4229889 .3019867H.1289978M.23899842 .7409973 .14299011 .59098818H.20698548L.28599549 .68699648 .36698915 .59098818H.42999269L.33399964 .7409973H.23899842Z"/>
<path id="font_2_45" d="M.17298889 .72898867H.07998657V0H.5329895V.08198547H.17298889V.72898867Z"/>
<path id="font_2_74" d="M.1499939 .5239868H.066986087V0H.1499939V.5239868M.1499939 .72898867H.06599426V.6239929H.1499939V.72898867Z"/>
<path id="font_2_1" d="M0 0Z"/>
<path id="font_2_9" d="M.23599243 .72898867C.13598633 .59799197 .07299805 .41600038 .07299805 .25898744 .07299805 .100997928 .13598633-.08100891 .23599243-.21200562H.29100038C.20298767-.069000247 .1539917 .09899902 .1539917 .25898744 .1539917 .41799928 .20298767 .58699038 .29100038 .72898867H.23599243Z"/>
<path id="font_2_18" d="M.25898744 .5149994V0H.34700013V.72299197H.2889862C.2579956 .6119995 .23799134 .5970001 .101989749 .57899478V.5149994H.25898744Z"/>
<path id="font_2_15" d="M.19099427 .10398865H.08699036V0H.19099427V.10398865Z"/>
<path id="font_2_23" d="M.49798585 .5349884C.48098756 .6529999 .40499879 .72299197 .29699708 .72299197 .21899414 .72299197 .14898682 .68499758 .10699463 .6199951 .06199646 .548996 .042999269 .46099855 .042999269 .32998658 .042999269 .20799256 .05999756 .1309967 .102996829 .066986087 .14099121 .0079956059 .20298767-.023010254 .2809906-.023010254 .41600038-.023010254 .5130005 .07798767 .5130005 .21899414 .5130005 .35198976 .4229889 .44599916 .29599 .44599916 .22599793 .44599916 .17098999 .41999818 .1329956 .36698915 .13398743 .54599 .18998719 .644989 .29100038 .644989 .35299684 .644989 .3959961 .6049957 .4099884 .5349884H.49798585M.2849884 .36799623C.36999513 .36799623 .4229889 .30799867 .4229889 .21199036 .4229889 .12098694 .36299134 .054992677 .28199769 .054992677 .19999695 .054992677 .13798523 .12399292 .13798523 .21598816 .13798523 .30599977 .19799805 .36799623 .2849884 .36799623Z"/>
<path id="font_2_78" d="M.069992069 .5239868V0H.1539917V.32899476C.1539917 .40499879 .20899964 .46598817 .2769928 .46598817 .33898927 .46598817 .37399293 .42799378 .37399293 .36099244V0H.45799256V.32899476C.45799256 .40499879 .5130005 .46598817 .58099368 .46598817 .6419983 .46598817 .6779938 .4269867 .6779938 .36099244V0H.7619934V.3929901C.7619934 .4869995 .70799258 .5389862 .6100006 .5389862 .5399933 .5389862 .49798585 .5179901 .44898988 .45899964 .41799928 .5149994 .37599183 .5389862 .30799867 .5389862 .23799134 .5389862 .19099427 .5130005 .14698792 .44999696V.5239868H.069992069Z"/>
<path id="font_2_89" d="M.2919922 .2709961 .46798707 .5239868H.37399293L.24798584 .33399964 .12199402 .5239868H.026992798L.20199585 .2669983 .016998291 0H.11199951L.24499512 .20098877 .37599183 0H.47299195L.2919922 .2709961Z"/>
<path id="font_2_19" d="M.5059967 .08699036H.1329956C.14199829 .14698792 .17399597 .18499756 .26098634 .23799134L.36099244 .2939911C.45999146 .34899903 .5109863 .4229889 .5109863 .5119934 .5109863 .57199099 .4869995 .6279907 .44499208 .6669922 .40299989 .7049866 .35099793 .72299197 .28399659 .72299197 .19400025 .72299197 .1269989 .69099429 .08799744 .6289978 .06298828 .59098818 .051986696 .54599 .049987794 .47299195H.13798523C.14099121 .5219879 .14698792 .5509949 .15899658 .57499697 .18199158 .61898806 .22799683 .6459961 .2809906 .6459961 .36099244 .6459961 .42099 .58799746 .42099 .5099945 .42099 .45199586 .3880005 .4019928 .32499696 .3659973L.23298645 .31199647C.084991458 .22698975 .041992189 .15899658 .033996583 .0009918213H.5059967V.08699036Z"/>
<path id="font_2_17" d="M.2749939 .72299197C.20899964 .72299197 .14898682 .69299319 .11199951 .6439972 .06599426 .5799866 .042999269 .48399354 .042999269 .34999085 .042999269 .10598755 .12298584-.023010254 .2749939-.023010254 .4249878-.023010254 .5069885 .10598755 .5069885 .34399415 .5069885 .48399354 .4850006 .5779877 .43798829 .6439972 .40098573 .69400027 .34199525 .72299197 .2749939 .72299197M.2749939 .644989C.36999513 .644989 .4169922 .5479889 .4169922 .35198976 .4169922 .1459961 .37098695 .049987794 .272995 .049987794 .17999268 .049987794 .1329956 .1499939 .1329956 .34899903 .1329956 .5479889 .17999268 .644989 .2749939 .644989Z"/>
<path id="font_2_10" d="M.09298706-.21200562C.19299317-.08100891 .2559967 .100997928 .2559967 .2579956 .2559967 .41600038 .19299317 .59799197 .09298706 .72898867H.037994386C.12599182 .58599856 .1749878 .41799928 .1749878 .2579956 .1749878 .09899902 .12599182-.070007327 .037994386-.21200562H.09298706Z"/>
<path id="font_2_34" d="M.47399903 .21899414 .548996 0H.6529999L.39698792 .72898867H.2769928L.016998291 0H.115997318L.19299317 .21899414H.47399903M.44799806 .29699708H.21598816L.33599855 .6289978 .44799806 .29699708Z"/>
<path id="font_2_178" d="M.18299866 .33198548H.5799866V.4139862H.18299866V.6469879H.59498599V.72898867H.08999634V0H.61299136V.08198547H.18299866V.33198548M.36698915 .93899539 .269989 .79100039H.32998658L.47898866 .93899539H.36698915Z"/>
<path id="font_2_68" d="M.47099305 .34799195C.46699525 .39898683 .45599366 .43199159 .43598939 .46099855 .3999939 .5099945 .33699037 .5389862 .2639923 .5389862 .12199402 .5389862 .0309906 .4269867 .0309906 .25299073 .0309906 .083999637 .12098694-.023010254 .2630005-.023010254 .3880005-.023010254 .46699525 .051986696 .47698976 .17999268H.3929901C.3789978 .09599304 .33599855 .053985597 .2649994 .053985597 .17298889 .053985597 .117996219 .1289978 .117996219 .25299073 .117996219 .38398744 .17199707 .46199037 .2630005 .46199037 .33299256 .46199037 .3769989 .42099 .3869934 .34799195H.47099305Z"/>
<path id="font_2_73" d="M.069992069 .72898867V0H.15299988V.2889862C.15299988 .3959961 .20899964 .46598817 .29499818 .46598817 .32299806 .46598817 .34899903 .45799256 .36898805 .44299317 .3929901 .4249878 .40299989 .3999939 .40299989 .36299134V0H.48599244V.3959961C.48599244 .48399354 .4229889 .5389862 .32099916 .5389862 .24699402 .5389862 .20199585 .5159912 .15299988 .45199586V.72898867H.069992069Z"/>
<path id="font_2_77" d="M.1519928 .72898867H.067993167V0H.1519928V.72898867Z"/>
<path id="font_2_27" d="M.21398926 .10398865H.10998535V0H.21398926V.10398865M.21398926 .5239868H.10998535V.41999818H.21398926V.5239868Z"/>
<path id="font_2_30" d="M.5339966 .35299684H.049987794V.2829895H.5339966V.35299684M.5339966 .18099976H.049987794V.11099243H.5339966V.18099976Z"/>
<path id="font_2_22" d="M.47599793 .70899966H.10998535L.056991579 .32299806H.13798523C.1789856 .37199403 .21299744 .3889923 .2689972 .3889923 .3639984 .3889923 .4229889 .32398988 .4229889 .21899414 .4229889 .116989139 .3639984 .054992677 .2679901 .054992677 .19099427 .054992677 .14399719 .09399414 .12298584 .17399597H.034988405C.04699707 .115997318 .056991579 .08799744 .07798767 .06199646 .117996219 .0079956059 .18998719-.023010254 .269989-.023010254 .41299439-.023010254 .5130005 .08099365 .5130005 .23098755 .5130005 .37098695 .41999818 .46699525 .28399659 .46699525 .23399353 .46699525 .19400025 .45399476 .15299988 .42399598L.18099976 .621994H.47599793V.70899966Z"/>
<path id="font_2_84" d="M.43798829 .37799073C.43699647 .48098756 .36898805 .5389862 .24798584 .5389862 .12599182 .5389862 .04699707 .47599793 .04699707 .3789978 .04699707 .29699708 .08898926 .2579956 .21299744 .22799683L.29100038 .20899964C.34899903 .19499207 .37199403 .17399597 .37199403 .13699341 .37199403 .08699036 .32299806 .053985597 .25 .053985597 .20498657 .053985597 .16699219 .066986087 .1459961 .08898926 .1329956 .10398865 .1269989 .11898804 .12199402 .1559906H.033996583C.037994386 .034988405 .10598755-.023010254 .24299622-.023010254 .375-.023010254 .45899964 .041992189 .45899964 .14299011 .45899964 .22099304 .4149933 .2639923 .31098939 .2889862L.23098755 .30799867C.16299439 .32398988 .13398743 .34599305 .13398743 .3829956 .13398743 .43199159 .1769867 .46199037 .24499512 .46199037 .31199647 .46199037 .34799195 .43299867 .34999085 .37799073H.43798829Z"/>
<path id="font_2_86" d="M.48199464 0V.5239868H.39898683V.22698975C.39898683 .11999512 .34298707 .049987794 .2559967 .049987794 .18998719 .049987794 .147995 .08999634 .147995 .15299988V.5239868H.06498718V.11999512C.06498718 .032989503 .12998963-.023010254 .23199463-.023010254 .30899049-.023010254 .35798646 .0039978029 .40699769 .07299805V0H.48199464Z"/>
<path id="font_2_37" d="M.08898926 0H.36999513C.55400088 0 .6669922 .13798523 .6669922 .36499024 .6669922 .59098818 .5549927 .72898867 .36999513 .72898867H.08898926V0M.18199158 .08198547V.6469879H.35398866C.49798585 .6469879 .57398989 .5499878 .57398989 .3639984 .57398989 .1789856 .49798585 .08198547 .35398866 .08198547H.18199158Z"/>
</defs>
<use data-text="P" xlink:href="#font_1_49" transform="matrix(16,0,0,-16,141.7323,76.53546)"/>
<use data-text="l" xlink:href="#font_1_77" transform="matrix(16,0,0,-16,152.4043,76.53546)"/>
<use data-text="a" xlink:href="#font_1_66" transform="matrix(16,0,0,-16,156.8523,76.53546)"/>
<use data-text="n" xlink:href="#font_1_79" transform="matrix(16,0,0,-16,165.74829,76.53546)"/>
<use data-text=" " xlink:href="#font_1_1" transform="matrix(16,0,0,-16,175.52429,76.53546)"/>
<use data-text="d" xlink:href="#font_1_69" transform="matrix(16,0,0,-16,179.97229,76.53546)"/>
<use data-text="e" xlink:href="#font_1_70" transform="matrix(16,0,0,-16,189.74829,76.53546)"/>
<use data-text=" " xlink:href="#font_1_1" transform="matrix(16,0,0,-16,198.64429,76.53546)"/>
<use data-text="C" xlink:href="#font_1_36" transform="matrix(16,0,0,-16,203.09229,76.53546)"/>
<use data-text="h" xlink:href="#font_1_73" transform="matrix(16,0,0,-16,214.64429,76.53546)"/>
<use data-text="a" xlink:href="#font_1_66" transform="matrix(16,0,0,-16,224.42029,76.53546)"/>
<use data-text="m" xlink:href="#font_1_78" transform="matrix(16,0,0,-16,233.31629,76.53546)"/>
<use data-text="b" xlink:href="#font_1_67" transform="matrix(16,0,0,-16,247.54029,76.53546)"/>
<use data-text="r" xlink:href="#font_1_83" transform="matrix(16,0,0,-16,257.31629,76.53546)"/>
<use data-text="e" xlink:href="#font_1_70" transform="matrix(16,0,0,-16,263.54029,76.53546)"/>
<use data-text=" " xlink:href="#font_1_1" transform="matrix(16,0,0,-16,272.43629,76.53546)"/>
<use data-text="-" xlink:href="#font_1_14" transform="matrix(16,0,0,-16,276.88429,76.53546)"/>
<use data-text=" " xlink:href="#font_1_1" transform="matrix(16,0,0,-16,282.21229,76.53546)"/>
<use data-text="E" xlink:href="#font_1_38" transform="matrix(16,0,0,-16,286.66029,76.53546)"/>
<use data-text="x" xlink:href="#font_1_89" transform="matrix(16,0,0,-16,297.33229,76.53546)"/>
<use data-text="e" xlink:href="#font_1_70" transform="matrix(16,0,0,-16,306.22828,76.53546)"/>
<use data-text="m" xlink:href="#font_1_78" transform="matrix(16,0,0,-16,315.12428,76.53546)"/>
<use data-text="p" xlink:href="#font_1_81" transform="matrix(16,0,0,-16,329.34828,76.53546)"/>
<use data-text="l" xlink:href="#font_1_77" transform="matrix(16,0,0,-16,339.12428,76.53546)"/>
<use data-text="e" xlink:href="#font_1_70" transform="matrix(16,0,0,-16,343.57228,76.53546)"/>
<path transform="matrix(1,0,0,-1,0,841.8898)" stroke-width="2" stroke-linecap="butt" stroke-miterlimit="10" stroke-linejoin="miter" fill="none" stroke="#000000" d="M56.69291 56.69291H256.6929V231.6929H56.69291Z"/>
<path transform="matrix(1,0,0,-1,0,841.8898)" stroke-width="1.5" stroke-linecap="butt" stroke-miterlimit="10" stroke-linejoin="miter" fill="none" stroke="#80331a" d="M56.69291 56.69291H101.6929"/>
<path transform="matrix(1,0,0,-1,0,841.8898)" stroke-width="1.1" stroke-linecap="butt" stroke-miterlimit="10" stroke-linejoin="miter" fill="none" stroke="#4d80cc" d="M106.6929 231.6929H161.6929"/>
<path transform="matrix(1,0,0,-1,0,841.8898)" d="M85.03937 85.03937H165.03937V185.03937H85.03937Z" fill="#cc99e6" fill-rule="evenodd"/>
<path transform="matrix(1,0,0,-1,0,841.8898)" stroke-width="1.1" stroke-linecap="butt" stroke-miterlimit="10" stroke-linejoin="miter" fill="none" stroke="#4d80cc" d="M85.03937 85.03937H165.03937V185.03937H85.03937Z"/>
<path transform="matrix(1,0,0,-1,0,841.8898)" d="M212.5197 85.03937H242.5197V185.03937H212.5197Z" fill="#b3804d" fill-rule="evenodd"/>
<path transform="matrix(1,0,0,-1,0,841.8898)" stroke-width="1.1" stroke-linecap="butt" stroke-miterlimit="10" stroke-linejoin="miter" fill="none" stroke="#4d80cc" d="M212.5197 85.03937H242.5197V185.03937H212.5197Z"/>
<use data-text="P" xlink:href="#font_2_49" transform="matrix(10,0,0,-10,99.2126,771.0236)"/>
<use data-text="o" xlink:href="#font_2_80" transform="matrix(10,0,0,-10,105.8826,771.0236)"/>
<use data-text="r" xlink:href="#font_2_83" transform="matrix(10,0,0,-10,111.4426,771.0236)"/>
<use data-text="t" xlink:href="#font_2_85" transform="matrix(10,0,0,-10,114.7726,771.0236)"/>
<use data-text="e" xlink:href="#font_2_70" transform="matrix(10,0,0,-10,117.5526,771.0236)"/>
<use data-text="F" xlink:href="#font_2_39" transform="matrix(10,0,0,-10,99.2126,604.5276)"/>
<use data-text="e" xlink:href="#font_2_70" transform="matrix(10,0,0,-10,105.3226,604.5276)"/>
<use data-text="n" xlink:href="#font_2_79" transform="matrix(10,0,0,-10,110.8826,604.5276)"/>
<use data-text="&#x00ea;" xlink:href="#font_2_208" transform="matrix(10,0,0,-10,116.4426,604.5276)"/>
<use data-text="t" xlink:href="#font_2_85" transform="matrix(10,0,0,-10,122.002597,604.5276)"/>
<use data-text="r" xlink:href="#font_2_83" transform="matrix(10,0,0,-10,124.78259,604.5276)"/>
<use data-text="e" xlink:href="#font_2_70" transform="matrix(10,0,0,-10,128.1126,604.5276)"/>
<use data-text="L" xlink:href="#font_2_45" transform="matrix(10,0,0,-10,113.3858,700.1575)"/>
<use data-text="i" xlink:href="#font_2_74" transform="matrix(10,0,0,-10,118.9458,700.1575)"/>
<use data-text="t" xlink:href="#font_2_85" transform="matrix(10,0,0,-10,121.1658,700.1575)"/>
<use data-text=" " xlink:href="#font_2_1" transform="matrix(10,0,0,-10,123.9458,700.1575)"/>
<use data-text="(" xlink:href="#font_2_9" transform="matrix(10,0,0,-10,126.7258,700.1575)"/>
<use data-text="1" xlink:href="#font_2_18" transform="matrix(10,0,0,-10,130.0558,700.1575)"/>
<use data-text="." xlink:href="#font_2_15" transform="matrix(10,0,0,-10,135.6158,700.1575)"/>
<use data-text="6" xlink:href="#font_2_23" transform="matrix(10,0,0,-10,138.3958,700.1575)"/>
<use data-text="m" xlink:href="#font_2_78" transform="matrix(10,0,0,-10,143.9558,700.1575)"/>
<use data-text=" " xlink:href="#font_2_1" transform="matrix(10,0,0,-10,152.2858,700.1575)"/>
<use data-text="x" xlink:href="#font_2_89" transform="matrix(10,0,0,-10,155.0658,700.1575)"/>
<use data-text=" " xlink:href="#font_2_1" transform="matrix(10,0,0,-10,160.0658,700.1575)"/>
<use data-text="2" xlink:href="#font_2_19" transform="matrix(10,0,0,-10,162.8458,700.1575)"/>
<use data-text="." xlink:href="#font_2_15" transform="matrix(10,0,0,-10,168.40579,700.1575)"/>
<use data-text="0" xlink:href="#font_2_17" transform="matrix(10,0,0,-10,171.18579,700.1575)"/>
<use data-text="m" xlink:href="#font_2_78" transform="matrix(10,0,0,-10,176.74579,700.1575)"/>
<use data-text=")" xlink:href="#font_2_10" transform="matrix(10,0,0,-10,185.07579,700.1575)"/>
<use data-text="A" xlink:href="#font_2_34" transform="matrix(10,0,0,-10,170.0787,700.1575)"/>
<use data-text="r" xlink:href="#font_2_83" transform="matrix(10,0,0,-10,176.7487,700.1575)"/>
<use data-text="m" xlink:href="#font_2_78" transform="matrix(10,0,0,-10,180.0787,700.1575)"/>
<use data-text="o" xlink:href="#font_2_80" transform="matrix(10,0,0,-10,188.4087,700.1575)"/>
<use data-text="i" xlink:href="#font_2_74" transform="matrix(10,0,0,-10,193.9687,700.1575)"/>
<use data-text="r" xlink:href="#font_2_83" transform="matrix(10,0,0,-10,196.1887,700.1575)"/>
<use data-text="e" xlink:href="#font_2_70" transform="matrix(10,0,0,-10,199.5187,700.1575)"/>
<use data-text=" " xlink:href="#font_2_1" transform="matrix(10,0,0,-10,205.0787,700.1575)"/>
<use data-text="(" xlink:href="#font_2_9" transform="matrix(10,0,0,-10,207.8587,700.1575)"/>
<use data-text="0" xlink:href="#font_2_17" transform="matrix(10,0,0,-10,211.1887,700.1575)"/>
<use data-text="." xlink:href="#font_2_15" transform="matrix(10,0,0,-10,216.7487,700.1575)"/>
<use data-text="6" xlink:href="#font_2_23" transform="matrix(10,0,0,-10,219.5287,700.1575)"/>
<use data-text="m" xlink:href="#font_2_78" transform="matrix(10,0,0,-10,225.0887,700.1575)"/>
<use data-text=" " xlink:href="#font_2_1" transform="matrix(10,0,0,-10,233.4187,700.1575)"/>
<use data-text="x" xlink:href="#font_2_89" transform="matrix(10,0,0,-10,236.1987,700.1575)"/>
<use data-text=" " xlink:href="#font_2_1" transform="matrix(10,0,0,-10,241.1987,700.1575)"/>
<use data-text="2" xlink:href="#font_2_19" transform="matrix(10,0,0,-10,243.9787,700.1575)"/>
<use data-text="." xlink:href="#font_2_15" transform="matrix(10,0,0,-10,249.5387,700.1575)"/>
<use data-text="0" xlink:href="#font_2_17" transform="matrix(10,0,0,-10,252.3187,700.1575)"/>
<use data-text="m" xlink:href="#font_2_78" transform="matrix(10,0,0,-10,257.8787,700.1575)"/>
<use data-text=")" xlink:href="#font_2_10" transform="matrix(10,0,0,-10,266.20869,700.1575)"/>
<use data-text="&#x00c9;" xlink:href="#font_2_178" transform="matrix(10,0,0,-10,56.69291,813.54336)"/>
<use data-text="c" xlink:href="#font_2_68" transform="matrix(10,0,0,-10,63.36291,813.54336)"/>
<use data-text="h" xlink:href="#font_2_73" transform="matrix(10,0,0,-10,68.362918,813.54336)"/>
<use data-text="e" xlink:href="#font_2_70" transform="matrix(10,0,0,-10,73.92291,813.54336)"/>
<use data-text="l" xlink:href="#font_2_77" transform="matrix(10,0,0,-10,79.48291,813.54336)"/>
<use data-text="l" xlink:href="#font_2_77" transform="matrix(10,0,0,-10,81.70291,813.54336)"/>
<use data-text="e" xlink:href="#font_2_70" transform="matrix(10,0,0,-10,83.92291,813.54336)"/>
<use data-text=" " xlink:href="#font_2_1" transform="matrix(10,0,0,-10,89.48291,813.54336)"/>
<use data-text=":" xlink:href="#font_2_27" transform="matrix(10,0,0,-10,92.26291,813.54336)"/>
<use data-text=" " xlink:href="#font_2_1" transform="matrix(10,0,0,-10,95.04291,813.54336)"/>
<use data-text="1" xlink:href="#font_2_18" transform="matrix(10,0,0,-10,97.82291,813.54336)"/>
<use data-text="m" xlink:href="#font_2_78" transform="matrix(10,0,0,-10,103.382907,813.54336)"/>
<use data-text=" " xlink:href="#font_2_1" transform="matrix(10,0,0,-10,111.712909,813.54336)"/>
<use data-text="=" xlink:href="#font_2_30" transform="matrix(10,0,0,-10,114.492908,813.54336)"/>
<use data-text=" " xlink:href="#font_2_1" transform="matrix(10,0,0,-10,120.33291,813.54336)"/>
<use data-text="0" xlink:href="#font_2_17" transform="matrix(10,0,0,-10,123.11291,813.54336)"/>
<use data-text="." xlink:href="#font_2_15" transform="matrix(10,0,0,-10,128.67292,813.54336)"/>
<use data-text="5" xlink:href="#font_2_22" transform="matrix(10,0,0,-10,131.45291,813.54336)"/>
<use data-text="c" xlink:href="#font_2_68" transform="matrix(10,0,0,-10,137.01291,813.54336)"/>
<use data-text="m" xlink:href="#font_2_78" transform="matrix(10,0,0,-10,142.01291,813.54336)"/>
<use data-text=" " xlink:href="#font_2_1" transform="matrix(10,0,0,-10,150.34291,813.54336)"/>
<use data-text="s" xlink:href="#font_2_84" transform="matrix(10,0,0,-10,153.12291,813.54336)"/>
<use data-text="u" xlink:href="#font_2_86" transform="matrix(10,0,0,-10,158.12291,813.54336)"/>
<use data-text="r" xlink:href="#font_2_83" transform="matrix(10,0,0,-10,163.6829,813.54336)"/>
<use data-text=" " xlink:href="#font_2_1" transform="matrix(10,0,0,-10,167.01291,813.54336)"/>
<use data-text="l" xlink:href="#font_2_77" transform="matrix(10,0,0,-10,169.79291,813.54336)"/>
<use data-text="e" xlink:href="#font_2_70" transform="matrix(10,0,0,-10,172.01291,813.54336)"/>
<use data-text=" " xlink:href="#font_2_1" transform="matrix(10,0,0,-10,177.5729,813.54336)"/>
<use data-text="P" xlink:href="#font_2_49" transform="matrix(10,0,0,-10,180.3529,813.54336)"/>
<use data-text="D" xlink:href="#font_2_37" transform="matrix(10,0,0,-10,187.0229,813.54336)"/>
<use data-text="F" xlink:href="#font_2_39" transform="matrix(10,0,0,-10,194.2429,813.54336)"/>
</svg>
